<mxfile host="www.draw.io" modified="2019-11-16T21:48:27.603Z" agent="Mozilla/5.0 (Windows NT 10.0; Win64; x64; rv:70.0) Gecko/20100101 Firefox/70.0" etag="BvnfTZIC0T9l8S-_ZR0k" version="12.2.6" type="github" pages="1">
  <diagram id="z3GykfxEeM_3-pgF7mjN" name="Page-1">
    <mxGraphModel dx="1102" dy="601" grid="1" gridSize="10" guides="1" tooltips="1" connect="1" arrows="1" fold="1" page="1" pageScale="1" pageWidth="850" pageHeight="1100" math="0" shadow="0">
      <root>
        <mxCell id="0"/>
        <mxCell id="1" parent="0"/>
        <mxCell id="WGgRwCxHu7iBe9GPnQNk-1" style="vsdxID=3;fillColor=none;gradientColor=none;strokeColor=none;spacingTop=-3;spacingBottom=-3;spacingLeft=-3;spacingRight=-3;labelBackgroundColor=none;rounded=0;html=1;whiteSpace=wrap;" parent="1" vertex="1">
          <mxGeometry x="40" y="60" width="101" height="41" as="geometry"/>
        </mxCell>
        <mxCell id="WGgRwCxHu7iBe9GPnQNk-2" style="vsdxID=4;fillColor=#ffffff;gradientColor=none;shape=stencil(pZFLDsIwDERP4y1yEiEOUMoFOEFEDLEISZWG7+lJaypVFSvY2TPPsjUG0/TedgQa+5LTme7sigezBa05espcagWmBdMcU6ZTTtfopO9sJTWOCjmZUQOt0ebDnl8kGq6M2qzFkMlLug0bHx9frOdEo7A7YQPHGavwH3rqv8I/o8sbajFGI6FxCJLs3F9GWSV5g2nf);strokeColor=#000000;spacingTop=-3;spacingBottom=-3;spacingLeft=-3;spacingRight=-3;labelBackgroundColor=none;rounded=1;html=1;whiteSpace=wrap;" parent="WGgRwCxHu7iBe9GPnQNk-1" vertex="1">
          <mxGeometry width="101" height="41" as="geometry"/>
        </mxCell>
        <mxCell id="WGgRwCxHu7iBe9GPnQNk-3" value="Logged in&lt;br&gt;&lt;p style=&quot;margin-left: 0 ; margin-right: 0 ; margin-top: 0px ; margin-bottom: 0px ; text-indent: 0 ; direction: ltr&quot;&gt;&lt;font style=&quot;font-size: 11px ; font-family: &amp;#34;arial&amp;#34; ; color: #000000 ; direction: ltr ; letter-spacing: 0px ; line-height: 100% ; opacity: 1&quot;&gt;&lt;u&gt;User&lt;/u&gt;&lt;/font&gt;&lt;/p&gt;" style="text;vsdxID=3;fillColor=none;gradientColor=none;strokeColor=none;spacingTop=-3;spacingBottom=-3;spacingLeft=-3;spacingRight=-3;labelBackgroundColor=none;rounded=0;html=1;whiteSpace=wrap;verticalAlign=middle;align=center;;html=1;" parent="WGgRwCxHu7iBe9GPnQNk-1" vertex="1">
          <mxGeometry y="-0.48" width="101.6" height="41.91" as="geometry"/>
        </mxCell>
        <mxCell id="WGgRwCxHu7iBe9GPnQNk-4" style="vsdxID=5;fillColor=none;gradientColor=none;strokeColor=none;spacingTop=-3;spacingBottom=-3;spacingLeft=-3;spacingRight=-3;labelBackgroundColor=none;rounded=0;html=1;whiteSpace=wrap;" parent="1" vertex="1">
          <mxGeometry x="310" y="60" width="101" height="41" as="geometry"/>
        </mxCell>
        <mxCell id="WGgRwCxHu7iBe9GPnQNk-5" style="vsdxID=6;fillColor=#ffffff;gradientColor=none;shape=stencil(pZFLDsIwDERP4y1yEiEOUMoFOEFEDLEISZWG7+lJaypVFSvY2TPPsjUG0/TedgQa+5LTme7sigezBa05espcagWmBdMcU6ZTTtfopO9sJTWOCjmZUQOt0ebDnl8kGq6M2qzFkMlLug0bHx9frOdEo7A7YQPHGavwH3rqv8I/o8sbajFGI6FxCJLs3F9GWSV5g2nf);strokeColor=#000000;spacingTop=-3;spacingBottom=-3;spacingLeft=-3;spacingRight=-3;labelBackgroundColor=none;rounded=1;html=1;whiteSpace=wrap;" parent="WGgRwCxHu7iBe9GPnQNk-4" vertex="1">
          <mxGeometry width="101" height="41" as="geometry"/>
        </mxCell>
        <mxCell id="WGgRwCxHu7iBe9GPnQNk-6" value="&lt;p style=&quot;align:center;margin-left:0;margin-right:0;margin-top:0px;margin-bottom:0px;text-indent:0;valign:middle;direction:ltr;&quot;&gt;&lt;font style=&quot;font-size:11px;font-family:Arial;color:#000000;direction:ltr;letter-spacing:0px;line-height:100%;opacity:1&quot;&gt;&lt;u&gt;Site&lt;/u&gt;&lt;/font&gt;&lt;/p&gt;" style="text;vsdxID=5;fillColor=none;gradientColor=none;strokeColor=none;spacingTop=-3;spacingBottom=-3;spacingLeft=-3;spacingRight=-3;labelBackgroundColor=none;rounded=0;html=1;whiteSpace=wrap;verticalAlign=middle;align=center;;html=1;" parent="WGgRwCxHu7iBe9GPnQNk-4" vertex="1">
          <mxGeometry y="-0.48" width="101.6" height="41.91" as="geometry"/>
        </mxCell>
        <mxCell id="WGgRwCxHu7iBe9GPnQNk-7" style="vsdxID=7;fillColor=none;gradientColor=none;strokeColor=none;spacingTop=-3;spacingBottom=-3;spacingLeft=-3;spacingRight=-3;labelBackgroundColor=none;rounded=0;html=1;whiteSpace=wrap;" parent="1" vertex="1">
          <mxGeometry x="726" y="60" width="101" height="41" as="geometry"/>
        </mxCell>
        <mxCell id="WGgRwCxHu7iBe9GPnQNk-8" style="vsdxID=8;fillColor=#ffffff;gradientColor=none;shape=stencil(pZFLDsIwDERP4y1yEiEOUMoFOEFEDLEISZWG7+lJaypVFSvY2TPPsjUG0/TedgQa+5LTme7sigezBa05espcagWmBdMcU6ZTTtfopO9sJTWOCjmZUQOt0ebDnl8kGq6M2qzFkMlLug0bHx9frOdEo7A7YQPHGavwH3rqv8I/o8sbajFGI6FxCJLs3F9GWSV5g2nf);strokeColor=#000000;spacingTop=-3;spacingBottom=-3;spacingLeft=-3;spacingRight=-3;labelBackgroundColor=none;rounded=1;html=1;whiteSpace=wrap;" parent="WGgRwCxHu7iBe9GPnQNk-7" vertex="1">
          <mxGeometry width="101" height="41" as="geometry"/>
        </mxCell>
        <mxCell id="WGgRwCxHu7iBe9GPnQNk-9" value="&lt;p style=&quot;align:center;margin-left:0;margin-right:0;margin-top:0px;margin-bottom:0px;text-indent:0;valign:middle;direction:ltr;&quot;&gt;&lt;font style=&quot;font-size:11px;font-family:Arial;color:#000000;direction:ltr;letter-spacing:0px;line-height:100%;opacity:1&quot;&gt;&lt;u&gt;Database&lt;/u&gt;&lt;/font&gt;&lt;/p&gt;" style="text;vsdxID=7;fillColor=none;gradientColor=none;strokeColor=none;spacingTop=-3;spacingBottom=-3;spacingLeft=-3;spacingRight=-3;labelBackgroundColor=none;rounded=0;html=1;whiteSpace=wrap;verticalAlign=middle;align=center;;html=1;" parent="WGgRwCxHu7iBe9GPnQNk-7" vertex="1">
          <mxGeometry y="-0.48" width="101.6" height="41.91" as="geometry"/>
        </mxCell>
        <mxCell id="WGgRwCxHu7iBe9GPnQNk-10" style="vsdxID=10;edgeStyle=none;dashed=1;dashPattern=2.00 2.00;startArrow=none;endArrow=none;startSize=5;endSize=5;strokeColor=#000000;spacingTop=-3;spacingBottom=-3;spacingLeft=-3;spacingRight=-3;verticalAlign=middle;html=1;labelBackgroundColor=none;rounded=0;" parent="1" source="Hc6lMpOv_d2KN20AxJxX-3" edge="1">
          <mxGeometry relative="1" as="geometry">
            <mxPoint as="offset"/>
            <Array as="points"/>
            <mxPoint x="361" y="102" as="sourcePoint"/>
            <mxPoint x="361" y="457" as="targetPoint"/>
          </mxGeometry>
        </mxCell>
        <mxCell id="WGgRwCxHu7iBe9GPnQNk-11" style="vsdxID=9;edgeStyle=none;dashed=1;dashPattern=2.00 2.00;startArrow=none;endArrow=none;startSize=5;endSize=5;strokeColor=#000000;spacingTop=-3;spacingBottom=-3;spacingLeft=-3;spacingRight=-3;verticalAlign=middle;html=1;labelBackgroundColor=none;rounded=0;exitX=0.504950495049505;exitY=1.024390243902439;exitDx=0;exitDy=0;exitPerimeter=0;" parent="1" source="Hc6lMpOv_d2KN20AxJxX-1" edge="1">
          <mxGeometry relative="1" as="geometry">
            <mxPoint as="offset"/>
            <Array as="points"/>
            <mxPoint x="91" y="457" as="targetPoint"/>
          </mxGeometry>
        </mxCell>
        <mxCell id="WGgRwCxHu7iBe9GPnQNk-12" style="vsdxID=11;edgeStyle=none;dashed=1;dashPattern=2.00 2.00;startArrow=none;endArrow=none;startSize=5;endSize=5;strokeColor=#000000;spacingTop=-3;spacingBottom=-3;spacingLeft=-3;spacingRight=-3;verticalAlign=middle;html=1;labelBackgroundColor=none;rounded=0;exitX=0.504950495049505;exitY=1.024390243902439;exitDx=0;exitDy=0;exitPerimeter=0;" parent="1" source="WGgRwCxHu7iBe9GPnQNk-7" edge="1">
          <mxGeometry relative="1" as="geometry">
            <mxPoint as="offset"/>
            <Array as="points"/>
            <mxPoint x="777" y="450" as="targetPoint"/>
          </mxGeometry>
        </mxCell>
        <mxCell id="Hc6lMpOv_d2KN20AxJxX-1" value="" style="html=1;points=[];perimeter=orthogonalPerimeter;" parent="1" vertex="1">
          <mxGeometry x="86" y="120" width="10" height="160" as="geometry"/>
        </mxCell>
        <mxCell id="Hc6lMpOv_d2KN20AxJxX-2" style="vsdxID=9;edgeStyle=none;dashed=1;dashPattern=2.00 2.00;startArrow=none;endArrow=none;startSize=5;endSize=5;strokeColor=#000000;spacingTop=-3;spacingBottom=-3;spacingLeft=-3;spacingRight=-3;verticalAlign=middle;html=1;labelBackgroundColor=none;rounded=0;exitX=0.504950495049505;exitY=1.024390243902439;exitDx=0;exitDy=0;exitPerimeter=0;" parent="1" source="WGgRwCxHu7iBe9GPnQNk-1" target="Hc6lMpOv_d2KN20AxJxX-1" edge="1">
          <mxGeometry relative="1" as="geometry">
            <mxPoint as="offset"/>
            <Array as="points"/>
            <mxPoint x="91" y="457" as="targetPoint"/>
            <mxPoint x="91" y="102" as="sourcePoint"/>
          </mxGeometry>
        </mxCell>
        <mxCell id="Hc6lMpOv_d2KN20AxJxX-3" value="" style="html=1;points=[];perimeter=orthogonalPerimeter;" parent="1" vertex="1">
          <mxGeometry x="356" y="130" width="10" height="150" as="geometry"/>
        </mxCell>
        <mxCell id="Hc6lMpOv_d2KN20AxJxX-4" style="vsdxID=10;edgeStyle=none;dashed=1;dashPattern=2.00 2.00;startArrow=none;endArrow=none;startSize=5;endSize=5;strokeColor=#000000;spacingTop=-3;spacingBottom=-3;spacingLeft=-3;spacingRight=-3;verticalAlign=middle;html=1;labelBackgroundColor=none;rounded=0;" parent="1" target="Hc6lMpOv_d2KN20AxJxX-3" edge="1">
          <mxGeometry relative="1" as="geometry">
            <mxPoint as="offset"/>
            <Array as="points"/>
            <mxPoint x="361" y="102" as="sourcePoint"/>
            <mxPoint x="361" y="457" as="targetPoint"/>
          </mxGeometry>
        </mxCell>
        <mxCell id="Hc6lMpOv_d2KN20AxJxX-5" value="Send Request By Selecting View Records" style="endArrow=classic;html=1;" parent="1" source="Hc6lMpOv_d2KN20AxJxX-1" edge="1">
          <mxGeometry width="50" height="50" relative="1" as="geometry">
            <mxPoint x="180" y="210" as="sourcePoint"/>
            <mxPoint x="350" y="160" as="targetPoint"/>
          </mxGeometry>
        </mxCell>
        <mxCell id="Hc6lMpOv_d2KN20AxJxX-8" value="" style="html=1;points=[];perimeter=orthogonalPerimeter;" parent="1" vertex="1">
          <mxGeometry x="772" y="160" width="10" height="90" as="geometry"/>
        </mxCell>
        <mxCell id="Hc6lMpOv_d2KN20AxJxX-9" value="" style="endArrow=classic;html=1;" parent="1" edge="1">
          <mxGeometry width="50" height="50" relative="1" as="geometry">
            <mxPoint x="370" y="180" as="sourcePoint"/>
            <mxPoint x="770" y="180" as="targetPoint"/>
          </mxGeometry>
        </mxCell>
        <mxCell id="Hc6lMpOv_d2KN20AxJxX-10" value="Request Records" style="text;html=1;resizable=0;points=[];align=center;verticalAlign=middle;labelBackgroundColor=#ffffff;" parent="Hc6lMpOv_d2KN20AxJxX-9" vertex="1" connectable="0">
          <mxGeometry x="-0.095" y="1" relative="1" as="geometry">
            <mxPoint as="offset"/>
          </mxGeometry>
        </mxCell>
        <mxCell id="Hc6lMpOv_d2KN20AxJxX-11" value="" style="endArrow=classic;html=1;" parent="1" edge="1">
          <mxGeometry width="50" height="50" relative="1" as="geometry">
            <mxPoint x="770" y="220" as="sourcePoint"/>
            <mxPoint x="370" y="220" as="targetPoint"/>
          </mxGeometry>
        </mxCell>
        <mxCell id="Hc6lMpOv_d2KN20AxJxX-12" value="Get Quiz Records" style="text;html=1;resizable=0;points=[];align=center;verticalAlign=middle;labelBackgroundColor=#ffffff;" parent="Hc6lMpOv_d2KN20AxJxX-11" vertex="1" connectable="0">
          <mxGeometry x="0.23" y="-1" relative="1" as="geometry">
            <mxPoint as="offset"/>
          </mxGeometry>
        </mxCell>
        <mxCell id="Hc6lMpOv_d2KN20AxJxX-13" value="" style="endArrow=classic;html=1;exitX=0.2;exitY=0.72;exitDx=0;exitDy=0;exitPerimeter=0;" parent="1" source="Hc6lMpOv_d2KN20AxJxX-3" edge="1">
          <mxGeometry width="50" height="50" relative="1" as="geometry">
            <mxPoint x="40" y="530" as="sourcePoint"/>
            <mxPoint x="100" y="240" as="targetPoint"/>
          </mxGeometry>
        </mxCell>
        <mxCell id="Hc6lMpOv_d2KN20AxJxX-14" value="Display User&#39;s Quiz Records" style="text;html=1;resizable=0;points=[];align=center;verticalAlign=middle;labelBackgroundColor=#ffffff;" parent="Hc6lMpOv_d2KN20AxJxX-13" vertex="1" connectable="0">
          <mxGeometry x="0.2094" y="2" relative="1" as="geometry">
            <mxPoint as="offset"/>
          </mxGeometry>
        </mxCell>
        <mxCell id="Hc6lMpOv_d2KN20AxJxX-15" value="View Quiz Records" style="text;html=1;strokeColor=none;fillColor=none;align=center;verticalAlign=middle;whiteSpace=wrap;rounded=0;" parent="1" vertex="1">
          <mxGeometry x="336" y="20" width="40" height="20" as="geometry"/>
        </mxCell>
      </root>
    </mxGraphModel>
  </diagram>
</mxfile>
